<?xml version="1.0" encoding="UTF-8"?>
<svg width="127px" height="127px" viewBox="0 0 127 127" version="1.1" xmlns="http://www.w3.org/2000/svg" xmlns:xlink="http://www.w3.org/1999/xlink">
    <!-- Generator: Sketch 52.5 (67469) - http://www.bohemiancoding.com/sketch -->
    <title>Group 4</title>
    <desc>Created with Sketch.</desc>
    <defs>
        <polygon id="path-1" points="0 0.195803094 11.1708828 0.195803094 11.1708828 19.4552529 0 19.4552529"></polygon>
        <polygon id="path-3" points="0 0.0489641026 11.1721115 0.0489641026 11.1721115 19.5555556 0 19.5555556"></polygon>
    </defs>
    <g id="Welcome" stroke="none" stroke-width="1" fill="none" fill-rule="evenodd">
        <g id="Desktop-HD" transform="translate(-1231.000000, -976.000000)">
            <g id="Group-4" transform="translate(1232.000000, 977.000000)">
                <g id="Group-2">
                    <circle id="Oval-Copy-5" stroke="#D8004D" cx="62.5" cy="62.5" r="62.5"></circle>
                    <g id="Group-15" transform="translate(23.000000, 42.000000)">
                        <path d="M15.4791967,5.60055914 L64.2861544,5.60055914 C65.1620358,5.60055914 65.8716195,6.30163308 65.8716195,7.16545634 C65.8716195,8.0292796 65.1620358,8.73035355 64.2861544,8.73035355 L15.4791967,8.73035355 C14.60402,8.73035355 13.8937316,8.0292796 13.8937316,7.16545634 C13.8937316,6.30140125 14.60402,5.60055914 15.4791967,5.60055914 Z M12.173913,17.7777778 L67.826087,17.7777778 L67.826087,2.66666667 L12.173913,2.66666667 L12.173913,17.7777778 Z" id="Fill-1" fill="#000000"></path>
                        <g id="Group-5">
                            <mask id="mask-2" fill="white">
                                <use xlink:href="#path-1"></use>
                            </mask>
                            <g id="Clip-4"></g>
                            <path d="M2.17655388,12.6660096 L6.89366163,12.6660096 L7.55717769,12.6660096 L8.07496597,12.6660096 C8.12411531,12.6660096 8.17228166,12.6516523 8.21946503,12.6471966 L8.21946503,19.4552529 L11.1708828,19.4552529 L11.1708828,17.8927887 L11.1708828,1.75821772 L11.1708828,0.195753586 L8.22069376,0.195753586 L8.22069376,7.22857496 C8.17228166,7.22387173 8.12558979,7.20951449 8.07619471,7.20951449 L7.55717769,7.20951449 L6.89366163,7.20951449 L2.17655388,7.20951449 C0.973869565,7.20951449 -2.45746692e-05,8.4313654 -2.45746692e-05,9.93788579 C-2.45746692e-05,11.4444062 0.973869565,12.6660096 2.17655388,12.6660096" id="Fill-3" fill="#000000" mask="url(#mask-2)"></path>
                        </g>
                        <path d="M77.8065341,7.68819655 L73.0060678,7.68819655 L72.3377268,7.68819655 L71.8635241,7.68819655 C71.7966652,7.68819655 71.7345113,7.70523081 71.6691382,7.71170862 L71.6691382,0.888888889 L68.6956522,0.888888889 L68.6956522,19.5555556 L71.6691382,19.5555556 L71.6691382,12.9520219 C71.7345113,12.9582598 71.7969129,12.975534 71.8635241,12.975534 L72.3377268,12.975534 L73.0060678,12.975534 L77.8065341,12.975534 C79.0184129,12.975534 80,11.7912932 80,10.3313854 C80,8.87099778 79.0181652,7.68819655 77.8065341,7.68819655" id="Fill-6" fill="#000000"></path>
                        <path d="M15.4791967,25.1565784 L64.2861544,25.1565784 C65.1620358,25.1565784 65.8716195,25.8569568 65.8716195,26.7214756 C65.8716195,27.5846033 65.1620358,28.2863728 64.2861544,28.2863728 L15.4791967,28.2863728 C14.60402,28.2863728 13.8937316,27.5846033 13.8937316,26.7214756 C13.8937316,25.8569568 14.60402,25.1565784 15.4791967,25.1565784 Z M12.173913,37.3333333 L48.90625,37.3333333 L67.826087,37.3333333 L67.826087,22.2222222 L12.173913,22.2222222 L12.173913,37.3333333 Z" id="Fill-8" fill="#D00050"></path>
                        <g id="Group-12" transform="translate(0.000000, 20.444444)">
                            <mask id="mask-4" fill="white">
                                <use xlink:href="#path-3"></use>
                            </mask>
                            <g id="Clip-11"></g>
                            <path d="M11.1721115,19.5556308 L11.1721115,17.973135 L11.1721115,1.63171054 L11.1721115,0.0489641026 L8.22069376,0.0489641026 L8.22069376,7.17144843 C8.17228166,7.1686906 8.12558979,7.15264501 8.07619471,7.15264501 L7.55717769,7.15264501 L6.89366163,7.15264501 L2.17655388,7.15264501 C0.973869565,7.15289573 -2.45746692e-05,8.39066211 -2.45746692e-05,9.91624615 C-2.45746692e-05,11.4420809 0.973869565,12.6790952 2.17655388,12.6790952 L6.89366163,12.6790952 L7.55717769,12.6790952 L8.07496597,12.6790952 C8.12411531,12.6790952 8.17228166,12.6648046 8.21946503,12.6610439 L8.21946503,19.5556308 L11.1721115,19.5556308 Z" id="Fill-10" fill="#A40063" mask="url(#mask-4)"></path>
                        </g>
                        <path d="M73.0060678,27.2434248 L72.3377268,27.2434248 L71.8635241,27.2434248 C71.7966652,27.2434248 71.7345113,27.2611786 71.6691382,27.2664567 L71.6691382,20.4444444 L68.6956522,20.4444444 L68.6956522,39.1111111 L71.6691382,39.1111111 L71.6691382,32.5067027 C71.7345113,32.5146199 71.7969129,32.5309342 71.8635241,32.5309342 L72.3377268,32.5309342 L73.0060678,32.5309342 L77.8065341,32.5309342 C79.0184129,32.5309342 80,31.3467087 80,29.8870595 C80,28.4264507 79.0181652,27.2434248 77.8065341,27.2434248 L73.0060678,27.2434248 Z" id="Fill-13" fill="#A40063"></path>
                    </g>
                </g>
            </g>
        </g>
    </g>
</svg>