<?xml version="1.0" encoding="UTF-8"?>
<svg width="127px" height="127px" viewBox="0 0 127 127" version="1.1" xmlns="http://www.w3.org/2000/svg" xmlns:xlink="http://www.w3.org/1999/xlink">
    <!-- Generator: Sketch 52.5 (67469) - http://www.bohemiancoding.com/sketch -->
    <title>Group</title>
    <desc>Created with Sketch.</desc>
    <g id="Page-1" stroke="none" stroke-width="1" fill="none" fill-rule="evenodd">
        <g id="Group" transform="translate(1.000000, 1.000000)">
            <g id="round-big-icon-2" stroke="#D8004D">
                <circle id="Oval-Copy-5" cx="62.5" cy="62.5" r="62.5"></circle>
            </g>
            <g id="male-chat-support" transform="translate(28.000000, 28.000000)">
                <path d="M46.3651905,0 C44.2168412,0 42.1284363,0.202281232 40.1274845,0.581611109 C41.949219,1.42332813 43.5178321,2.52599214 44.842562,3.89317776 C45.3473676,3.86815545 45.8546367,3.85112345 46.3651905,3.85112345 C52.6536028,3.85112345 58.5267156,5.75450153 62.9032716,9.21052473 C66.9897542,12.4377725 69.2403374,16.6366851 69.2403374,21.034094 C69.2403374,24.6461387 67.7339268,28.1156193 64.8834892,31.0674113 L64.0210701,31.9606449 L63.8389788,33.2029292 L62.3140922,43.5930773 L54.7978463,38.3007527 L53.5115055,37.3951131 L51.9773809,37.6886522 C50.1453819,38.0391749 48.2571338,38.2170646 46.3649852,38.2170646 C44.8458466,38.2170646 43.3515481,38.103518 41.8960491,37.8860972 C41.7416718,37.9146941 41.5883209,37.9435013 41.4302484,37.9699955 L40,39.3054302 C41.6661255,40.2180087 43.3572962,41.1493014 44.9509546,42.0385398 C45.4192188,42.0578848 45.8905623,42.0681881 46.3649852,42.0681881 C48.537148,42.0681881 50.6462871,41.8612809 52.6677678,41.4743812 L62.9260586,48.6976295 C63.2103839,48.8975978 63.5421309,49 63.8771625,49 C64.1040069,49 64.3312618,48.9531094 64.5457888,48.8574359 C65.0762555,48.6219318 65.4507026,48.1227471 65.5373346,47.5367203 L67.5565571,33.7759192 C70.9711289,30.2397825 73,25.8242902 73,21.0345146 C73,9.41743194 61.0755837,0 46.3651905,0 Z" id="Path" fill="#A40063"></path>
                <path d="M50.4542631,48.3894586 C48.2871687,46.9019688 40.722425,42.8783839 37.4918701,41.1601723 L37.4242965,41.1240771 C37.2679295,41.0408121 37.0965232,41 36.926147,41 C36.6941717,41 36.4636385,41.0758819 36.2736907,41.2243642 C34.5787876,42.5484003 32.7236032,43.440525 30.7594357,43.8759229 C30.4125028,43.9528302 30.1279932,44.1985234 30.0012926,44.5297375 L28.000042,49.7807629 L25.9981734,44.5297375 C25.8722969,44.1987285 25.5873752,43.9528302 25.2398243,43.8759229 C23.2758628,43.440525 21.4206784,42.5484003 19.7253633,41.2241591 C19.5354154,41.0758819 19.3050883,41 19.073113,41 C18.9027368,41 18.7317425,41.0410172 18.5751695,41.1242822 C15.3810796,42.8230107 7.71765374,46.9312961 5.55447368,48.3835111 C1.89478505,50.8377769 0.296916044,59.7157506 0.0134364473,61.4704676 C-0.014787902,61.6445857 0.00169346985,61.8226005 0.0606143744,61.9889253 C0.191847298,62.3566448 3.54889674,71 28.000248,71 C52.4505693,71 55.8086488,62.3566448 55.9390576,61.9889253 C55.9988026,61.8223954 56.0146659,61.6443806 55.9864416,61.4704676 C55.2171736,56.7065217 53.6324897,50.5699344 50.4542631,48.3894586 Z" id="Path" fill="#000000"></path>
                <path d="M8.35239998,32.0500242 L11.801568,32.0500242 C13.1001078,32.0500242 14.1527121,30.9793277 14.1527121,29.658568 L14.1527121,19.5289838 C14.1527121,18.6466328 13.6815623,17.8781405 12.9824774,17.4637804 C13.7525174,9.16912847 16.9007021,3.421504 29.0005233,3.421504 C35.9488836,3.421504 40.2867686,5.23387746 42.6513084,9.12486195 C44.0268732,11.3890519 44.6884922,14.3136216 44.9978478,17.4761239 C44.3098561,17.8932507 43.8477065,18.6555713 43.8477065,19.5289838 L43.8477065,29.658568 C43.8477065,30.7975796 44.6315607,31.7482457 45.6797696,31.9895833 C44.1587365,33.0000518 41.0109704,34.0330791 34.4948288,34.0330791 C33.9665382,34.0330791 33.416689,34.0262689 32.8429789,34.0122228 C32.5070414,33.3565249 31.8343291,32.9079008 31.0569633,32.9079008 L28.1823427,32.9079008 C27.0709232,32.9079008 26.1692292,33.8238772 26.1692292,34.9541632 C26.1692292,36.0842364 27.0711325,37 28.1823427,37 L31.0569633,37 C31.7284198,37 32.3220141,36.6643832 32.6870453,36.1504233 C33.2925701,36.1659592 33.8853271,36.1757489 34.4582001,36.1757489 C41.8042435,36.1757489 46.4745078,34.9009583 48.3651768,32.3711692 C48.4459693,32.2634824 48.5190173,32.1562212 48.5866235,32.0500242 L49.6488559,32.0500242 C50.9473957,32.0500242 52,30.9793277 52,29.658568 L52,19.5289838 C52,18.2086497 50.9473957,17.1379532 49.6488559,17.1379532 L48.3513625,17.1379532 C47.98675,13.3167737 47.1775696,10.0638229 45.5137892,7.32589614 C42.5183985,2.396351 37.1166067,0 29.000314,0 C20.8836026,0 15.4820201,2.396351 12.4864201,7.32589614 C10.8226397,10.0636101 10.013878,13.316348 9.64863746,17.1379532 L8.35219067,17.1379532 C7.0532322,17.1379532 6,18.2086497 6,19.5289838 L6,29.658568 C6.00020931,30.9793277 7.05344151,32.0500242 8.35239998,32.0500242 Z" id="Path" fill="#000000"></path>
                <path d="M14.4228304,31.5882681 C17.6542682,38.8424396 24.5762048,42 28.0118325,42 C30.2698599,42 34.0349142,40.6345339 37.267818,37.6385558 C36.0858196,37.7224338 34.8221453,37.7650115 33.4726064,37.7650115 C33.1565831,37.7650115 32.8240151,37.762244 32.4679915,37.7562831 C31.787777,38.2891427 30.9448388,38.5895282 30.0694396,38.5895282 L27.1931877,38.5895282 C25.0250039,38.5895282 23.2614305,36.7970081 23.2614305,34.5936133 C23.2614305,32.3900058 25.0252134,30.5970598 27.1931877,30.5970598 L30.0694396,30.5970598 C31.1081908,30.5970598 32.0803447,31.008786 32.8011877,31.7187687 C33.0409801,31.7215362 33.2772122,31.7228136 33.5092559,31.7228136 C37.2219538,31.7228136 39.6693019,31.3766571 41.2705705,30.959183 C41.0628202,30.4454833 40.9497304,29.8832451 40.9497304,29.2963119 L40.9497304,19.1632509 C40.9497304,18.1090276 41.3344453,17.0986594 42,16.3182106 C41.6450235,13.5078711 41.0004114,11.3625949 40.0391476,9.78040852 C38.0567244,6.51895857 34.2349157,5 28.012042,5 C22.8494903,5 19.2846469,6.08934983 17.1137406,8.33042578 C15.430796,10.0675949 14.4555008,12.5466801 14,16.2903222 C14.6800051,17.0739643 15.0735159,18.0945512 15.0735159,19.1634638 L15.0735159,29.2963119 C15.073097,30.1380725 14.832467,30.9221404 14.4228304,31.5882681 Z" id="Path" fill="#D00050"></path>
            </g>
        </g>
    </g>
</svg>