<?xml version="1.0" encoding="UTF-8"?>
<svg width="127px" height="127px" viewBox="0 0 127 127" version="1.1" xmlns="http://www.w3.org/2000/svg" xmlns:xlink="http://www.w3.org/1999/xlink">
    <!-- Generator: Sketch 52.5 (67469) - http://www.bohemiancoding.com/sketch -->
    <title>round-big-icon-3</title>
    <desc>Created with Sketch.</desc>
    <g id="Page-1" stroke="none" stroke-width="1" fill="none" fill-rule="evenodd">
        <g id="round-big-icon-3" transform="translate(1.000000, 1.000000)">
            <circle id="Oval-Copy-5" stroke="#D8004D" cx="62.5" cy="62.5" r="62.5"></circle>
            <g id="fast" transform="translate(11.000000, 39.000000)">
                <path d="M6.421875,21 L16.578125,21 C17.3634049,21 18,20.5522847 18,20 C18,19.4477153 17.3634049,19 16.578125,19 L6.421875,19 C5.63659512,19 5,19.4477153 5,20 C5,20.5522847 5.63659512,21 6.421875,21 Z" id="Path" fill="#A40063"></path>
                <path d="M1.5,31 L16.5,31 C17.3284271,31 18,30.5522847 18,30 C18,29.4477153 17.3284271,29 16.5,29 L1.5,29 C0.671572875,29 0,29.4477153 0,30 C0,30.5522847 0.671572875,31 1.5,31 Z" id="Path" fill="#D00050"></path>
                <path d="M16.5681818,8 L10.4318182,8 C9.64104684,8 9,8.44771525 9,9 C9,9.55228475 9.64104684,10 10.4318182,10 L16.5681818,10 C17.3589532,10 18,9.55228475 18,9 C18,8.44771525 17.3589532,8 16.5681818,8 Z" id="Path" fill="#A40063"></path>
                <polygon id="Path" fill="#D00050" points="44 7.36255156 41.9563026 6 35 10.6374484 37.0436974 12"></polygon>
                <circle id="Oval" fill="#000000" cx="37.5" cy="44.5" r="5.5"></circle>
                <path d="M79.4217623,11 L64,11 L64,21 L90,21 L81.4351334,11.8991837 C80.921431,11.3413841 80.1922553,11.0157299 79.4217623,11 Z" id="Path" fill="#A40063"></path>
                <path d="M85.2684636,43 L89.1841059,43 C90.6931018,43 92,41.8501053 92,40.3410526 L92,23 L64,23 L64,43 L67.8354348,43 C68.5391978,39 72.1788504,35.6315789 76.5519492,35.6315789 C80.9250479,35.6315789 84.5647006,39 85.2684636,43 Z" id="Path" fill="#D00050"></path>
                <path d="M46.1333261,41.9995258 L61.9999975,41.9995258 L61.9999975,2.56318967 C62.0009779,1.87372006 61.7117886,1.21302592 61.1978984,0.730679804 C60.6840082,0.248333692 59.9888773,-0.0148718302 59.2698744,0.000649542129 L24.6722304,0.000649542129 C23.9592734,-0.0126217541 23.2714455,0.253135877 22.7673335,0.736648874 C22.2632216,1.22016187 21.9863371,1.87969665 22.0005192,2.56318967 L22.0005192,39.4369856 C21.9863371,40.1204787 22.2632216,40.7800134 22.7673335,41.2635264 C23.2714455,41.7470394 23.9592734,42.0127971 24.6722304,41.9995258 L28.608687,41.9995258 C29.316191,38.1445564 32.9751909,34.8982665 37.3715356,34.8982665 C41.7678804,34.8982665 45.4258221,38.1445564 46.1333261,41.9995258 Z M41.971264,29.6473925 C41.7111952,29.6474867 41.4556976,29.5818425 41.2305329,29.4570788 L30.5728942,23.5587728 C30.1145398,23.3050757 29.8321765,22.8362289 29.8321631,22.3288347 L29.8321631,10.5322228 C29.8321765,10.0248286 30.1145398,9.55598183 30.5728942,9.30228471 L41.229898,3.40397877 C41.688264,3.15027521 42.2529942,3.15027521 42.7113602,3.40397877 L53.3990515,9.30228471 C53.8645236,9.55293594 54.1574005,10.0205358 54.1694118,10.5322228 L54.1694118,22.3288347 C54.1573122,22.8406594 53.8641642,23.3083069 53.3984166,23.5587728 L42.727233,29.4570788 C42.4966009,29.5820052 42.236164,29.6475698 41.971264,29.6473925 Z" id="Shape" fill="#000000" fill-rule="nonzero"></path>
                <ellipse id="Oval" fill="#000000" cx="77" cy="44.5" rx="6" ry="5.5"></ellipse>
                <polygon id="Path" fill="#A40063" points="43 27 51 22.6669419 51 14 43 18.3330581"></polygon>
                <polygon id="Path" fill="#D00050" points="47.569712 10 40 14.5417689 42.430288 16 50 11.4580147"></polygon>
                <polygon id="Path" fill="#A40063" points="33 22.6669419 40 27 40 18.3330581 33 14"></polygon>
            </g>
        </g>
    </g>
</svg>