<?xml version="1.0" encoding="UTF-8"?>
<svg width="127px" height="127px" viewBox="0 0 127 127" version="1.1" xmlns="http://www.w3.org/2000/svg" xmlns:xlink="http://www.w3.org/1999/xlink">
    <!-- Generator: Sketch 52.5 (67469) - http://www.bohemiancoding.com/sketch -->
    <title>round-big-icon-1 2</title>
    <desc>Created with Sketch.</desc>
    <g id="Page-1" stroke="none" stroke-width="1" fill="none" fill-rule="evenodd">
        <g id="round-big-icon-1-2" transform="translate(1.000000, 1.000000)">
            <g id="round-big-icon-1">
                <circle id="Oval-Copy-5" stroke="#D8004D" cx="62.5" cy="62.5" r="62.5"></circle>
                <g id="Group-8" transform="translate(41.000000, 31.000000)">
                    <polygon id="Fill-5" fill="#A40063" points="17.3521745 0 0.862745098 8.87323944 26.149195 8.87323944 40.5490196 0"></polygon>
                    <polygon id="Fill-1" fill="#D00050" points="27.6078431 10.2462095 27.6078431 63 39.3082852 55.4444147 39.3082852 29.7637904 44 26.7330333 44 0"></polygon>
                    <polygon id="Fill-2" fill="#000000" points="15.5294118 58.5633803 19.8431373 58.5633803 19.8431373 55.9014085 15.5294118 55.9014085"></polygon>
                    <polygon id="Fill-3" fill="#000000" points="4.31372549 58.5633803 8.62745098 58.5633803 8.62745098 55.9014085 4.31372549 55.9014085"></polygon>
                    <polygon id="Fill-4-path" fill="#000000" fill-rule="nonzero" points="0 63 25.8823529 63 25.8823529 10.6478873 0 10.6478873"></polygon>
                    <polygon id="Fill-4-path" fill="#FFFFFF" fill-rule="nonzero" points="14.3010616 60.6689306 22.5470989 60.6689306 22.5470989 54.32322 14.3010616 54.32322"></polygon>
                    <polygon id="Fill-4-path" fill="#FFFFFF" fill-rule="nonzero" points="2.98522331 60.6687348 11.2314559 60.6687348 11.2314559 54.32322 2.98522331 54.32322"></polygon>
                    <path d="M20.2519659,30.3613727 C14.3826769,22.6977658 12.4999983,16 12.4999983,16 C12.4999983,16 10.6173195,22.6992069 4.74834264,30.3613727 C4.51304681,30.6346096 4.28836113,30.9193758 4.07927865,31.2168235 C2.77173287,33.0741436 2,35.3756179 2,37.8681852 C2,44.0145772 6.70154766,49 12.4999983,49 C18.2984489,49 22.9999966,44.0145772 22.9999966,37.8681852 C23.0018689,35.3756179 22.2282637,33.0741436 20.9225902,31.2185529 C20.7119474,30.9193758 20.488198,30.6331686 20.2519659,30.3613727 Z" id="Fill-6" fill="#FFFFFF" fill-rule="nonzero"></path>
                </g>
                <path d="M53.452402,65.9717107 C55.7572302,65.9837123 57.6707341,67.5679341 57.8634976,69.6241139 C58.0562611,71.6799694 56.4648752,73.5279037 54.194469,73.8837373 L54.194469,75.2720398 L52.710335,75.2720398 L52.710335,73.8837373 C50.5707326,73.5580701 49.0039856,71.9005408 49,69.957566 L50.484134,69.957566 C50.484134,71.4250147 51.8131875,72.6148029 53.452402,72.6148029 C55.0919788,72.6148029 56.4206701,71.4250147 56.4206701,69.957566 C56.4206701,68.4901173 55.0919788,67.3003291 53.452402,67.3003291 C51.1479361,67.2883275 49.2344322,65.7041057 49.0416687,63.6479259 C48.8485429,61.5920704 50.4402911,59.7441361 52.710335,59.3883025 L52.710335,58 L54.194469,58 L54.194469,59.3883025 C56.3340714,59.7139697 57.9008183,61.371499 57.9048041,63.3144738 L56.4206701,63.3144738 C56.4206701,61.8470251 55.0919788,60.6572369 53.452402,60.6572369 C51.8131875,60.6572369 50.484134,61.8470251 50.484134,63.3144738 C50.484134,64.7819225 51.8131875,65.9717107 53.452402,65.9717107 Z" id="Path" fill="#000000" fill-rule="nonzero"></path>
            </g>
        </g>
    </g>
</svg>